<?xml version="1.0" encoding="UTF-8"?>
<svg width="540px" height="338px" viewBox="0 0 540 338" version="1.1" xmlns="http://www.w3.org/2000/svg" xmlns:xlink="http://www.w3.org/1999/xlink">
    <title>case-study-thumb__built-for-teams</title>
    <g id="case-study-thumb__built-for-teams" stroke="none" stroke-width="1" fill="none" fill-rule="evenodd">
        <rect fill="#000000" x="0" y="0" width="540" height="338"></rect>
        <g id="built-logo-3cc7ccfd" transform="translate(180.000000, 136.000000)" fill="#FFFFFF" fill-rule="nonzero">
            <path d="M24.2696639,30.3370799 C24.2696639,28.5246424 23.2872995,26.2921359 20.22472,26.2921359 L12.1348319,26.2921359 L12.1348319,34.3820238 L20.22472,34.3820238 C23.2291188,34.3820238 24.2696639,32.5695863 24.2696639,30.3370799 L24.2696639,30.3370799 Z M20.22472,16.1797759 C23.3191402,16.1797759 24.2696639,14.1573039 24.2696639,12.1348319 C24.2696639,10.11236 23.1979408,8.08988796 20.22472,8.08988796 L12.1348319,8.08988796 L12.1348319,16.1797759 L19.7194961,16.1797759 L20.22472,16.1797759 L20.22472,16.1797759 Z M24.2696639,0 C33.1090301,0 38.0910871,5.05586839 38.0910871,11.3585212 C38.0910871,15.663936 35.9604966,20.032836 31.1323379,21.7172817 C36.1476274,23.1533467 38.8433339,27.4587615 38.8433339,32.0139468 C38.8433339,38.8161408 34.3820238,44.4943837 24.2696639,44.4943837 L0,44.4943837 L0,0 L24.2696639,0 L24.2696639,0 Z" id="Fill-9"></path>
            <polygon id="Rectangle-2" points="165.842703 12.1348319 180.000007 12.1348319 180.000007 0 139.550567 0 139.550567 12.1348319 153.707871 12.1348319 153.707871 44.4943837 165.842703 44.4943837"></polygon>
            <rect id="Rectangle-5" x="91.0112397" y="0" width="12.1348319" height="44.4943837"></rect>
            <polygon id="Rectangle-3" points="123.370791 32.3595519 123.370791 0 111.235959 0 111.235959 38.4269678 111.235959 44.4943837 143.595511 44.4943837 143.595511 32.3595519"></polygon>
            <path d="M72.8089917,31.9550575 L64.7191037,34.3820238 L44.4943837,28.3146079 L44.4943837,40.4494398 L64.7191037,46.5168557 L72.8089917,44.0898894 L72.8089917,31.9550575 L72.8089917,31.9550575 Z M74.8314636,31.3483158 L84.9438235,28.3146079 L84.9438235,40.4494398 L74.8314636,43.4831478 L74.8314636,31.3483158 L74.8314636,31.3483158 Z M52.5842717,16.5842703 L44.4943837,14.1573039 L44.4943837,26.2921359 L52.5842717,28.7191023 L52.5842717,16.5842703 L52.5842717,16.5842703 L52.5842717,16.5842703 Z M54.6067438,17.1910119 L64.7191037,20.22472 L84.9438235,14.1573039 L84.9438235,26.2921359 L64.7191037,32.3595519 L54.6067438,29.3258438 L54.6067438,17.1910119 L54.6067438,17.1910119 L54.6067438,17.1910119 Z M72.8089917,3.64044958 L64.7191037,6.06741598 L44.4943837,0 L44.4943837,12.1348319 L64.7191037,18.202248 L72.8089917,15.7752815 L72.8089917,3.64044958 L72.8089917,3.64044958 L72.8089917,3.64044958 Z M74.8314636,3.03370799 L84.9438235,0 L84.9438235,12.1348319 L74.8314636,15.1685399 L74.8314636,3.03370799 L74.8314636,3.03370799 L74.8314636,3.03370799 Z" id="Rectangle-6"></path>
            <path d="M96.3444982,56.7182046 L102.644498,56.7182046 L102.644498,57.9923618 L97.7035994,57.9923618 L97.7035994,61.1352832 L102.304723,61.1352832 L102.304723,62.4094407 L97.7035994,62.4094407 L97.7035994,66.7415757 L96.3444982,66.7415757 L96.3444982,56.7182046 L96.3444982,56.7182046 Z M109.071914,66.9964071 C108.307416,66.9964071 107.604277,66.8619142 106.962476,66.592924 C106.320675,66.3239338 105.770905,65.9534882 105.31315,65.4815757 C104.855395,65.0096632 104.496747,64.4528148 104.237195,63.8110138 C103.977643,63.1692128 103.847869,62.4755118 103.847869,61.7298901 C103.847869,60.9842685 103.977643,60.2905673 104.237195,59.6487663 C104.496747,59.0069655 104.855395,58.4501171 105.31315,57.9782046 C105.770905,57.5062921 106.320675,57.1358464 106.962476,56.8668561 C107.604277,56.5978659 108.307416,56.463373 109.071914,56.463373 C109.836413,56.463373 110.539552,56.5978659 111.181353,56.8668561 C111.823154,57.1358464 112.372923,57.5062921 112.830679,57.9782046 C113.288434,58.4501171 113.647082,59.0069655 113.906634,59.6487663 C114.166186,60.2905673 114.29596,60.9842685 114.29596,61.7298901 C114.29596,62.4755118 114.166186,63.1692128 113.906634,63.8110138 C113.647082,64.4528148 113.288434,65.0096632 112.830679,65.4815757 C112.372923,65.9534882 111.823154,66.3239338 111.181353,66.592924 C110.539552,66.8619142 109.836413,66.9964071 109.071914,66.9964071 L109.071914,66.9964071 L109.071914,66.9964071 Z M109.071914,65.7222499 C109.647648,65.7222499 110.166744,65.6160709 110.629218,65.4037105 C111.091692,65.19135 111.488092,64.9058471 111.818431,64.5471936 C112.14877,64.1885402 112.403599,63.7661846 112.582926,63.2801149 C112.762253,62.7940451 112.851915,62.2773086 112.851915,61.7298901 C112.851915,61.1824717 112.762253,60.6657351 112.582926,60.1796654 C112.403599,59.6935955 112.14877,59.2712401 111.818431,58.9125866 C111.488092,58.5539332 111.091692,58.2684303 110.629218,58.0560697 C110.166744,57.8437092 109.647648,57.7375304 109.071914,57.7375304 C108.496181,57.7375304 107.977085,57.8437092 107.514611,58.0560697 C107.052137,58.2684303 106.655736,58.5539332 106.325397,58.9125866 C105.995059,59.2712401 105.74023,59.6935955 105.560903,60.1796654 C105.381576,60.6657351 105.291914,61.1824717 105.291914,61.7298901 C105.291914,62.2773086 105.381576,62.7940451 105.560903,63.2801149 C105.74023,63.7661846 105.995059,64.1885402 106.325397,64.5471936 C106.655736,64.9058471 107.052137,65.19135 107.514611,65.4037105 C107.977085,65.6160709 108.496181,65.7222499 109.071914,65.7222499 L109.071914,65.7222499 L109.071914,65.7222499 Z M116.249668,56.7182046 L119.774836,56.7182046 C120.416637,56.7182046 120.945171,56.8055069 121.360454,56.9801147 C121.775737,57.1547222 122.103712,57.3765177 122.344387,57.6455079 C122.585062,57.9144981 122.752589,58.2165174 122.846971,58.5515754 C122.941354,58.8866332 122.988544,59.2098883 122.988544,59.5213506 C122.988544,59.8422512 122.931916,60.1513492 122.818657,60.4486541 C122.705398,60.7459589 122.54259,61.014945 122.33023,61.2556205 C122.117869,61.4962958 121.858321,61.699215 121.551578,61.8643844 C121.244835,62.0295539 120.902703,62.1310134 120.525173,62.1687664 L123.370791,66.7415757 L121.671915,66.7415757 L119.1236,62.3244969 L117.608769,62.3244969 L117.608769,66.7415757 L116.249668,66.7415757 L116.249668,56.7182046 L116.249668,56.7182046 Z M117.608769,61.1352832 L119.392589,61.1352832 C119.65686,61.1352832 119.918767,61.1140476 120.178319,61.0715755 C120.437871,61.0291034 120.669105,60.951239 120.872027,60.8379799 C121.07495,60.7247209 121.237757,60.5619136 121.360454,60.349553 C121.483152,60.1371924 121.544499,59.8611276 121.544499,59.5213506 C121.544499,59.1815738 121.483152,58.905509 121.360454,58.6931485 C121.237757,58.4807879 121.07495,58.3179804 120.872027,58.2047215 C120.669105,58.0914624 120.437871,58.013598 120.178319,57.9711259 C119.918767,57.9286539 119.65686,57.907418 119.392589,57.907418 L117.608769,57.907418 L117.608769,61.1352832 L117.608769,61.1352832 Z M130.930792,57.9923618 L127.702926,57.9923618 L127.702926,56.7182046 L135.517758,56.7182046 L135.517758,57.9923618 L132.289893,57.9923618 L132.289893,66.7415757 L130.930792,66.7415757 L130.930792,57.9923618 L130.930792,57.9923618 Z M136.961803,56.7182046 L143.431691,56.7182046 L143.431691,57.9923618 L138.320904,57.9923618 L138.320904,60.979553 L143.077758,60.979553 L143.077758,62.2537104 L138.320904,62.2537104 L138.320904,65.4674183 L143.686523,65.4674183 L143.686523,66.7415757 L136.961803,66.7415757 L136.961803,56.7182046 L136.961803,56.7182046 Z M148.754837,56.7182046 L149.986523,56.7182046 L154.276186,66.7415757 L152.690568,66.7415757 L151.685399,64.2640475 L146.914388,64.2640475 L145.923377,66.7415757 L144.337758,66.7415757 L148.754837,56.7182046 L148.754837,56.7182046 Z M151.189894,63.0748339 L149.32113,58.4737103 L149.292815,58.4737103 L147.395736,63.0748339 L151.189894,63.0748339 L151.189894,63.0748339 Z M155.479557,56.7182046 L157.504051,56.7182046 L160.689445,64.3065194 L160.746074,64.3065194 L163.903153,56.7182046 L165.927647,56.7182046 L165.927647,66.7415757 L164.568546,66.7415757 L164.568546,58.5020248 L164.540231,58.5020248 L161.156636,66.7415757 L160.250568,66.7415757 L156.866973,58.5020248 L156.838658,58.5020248 L156.838658,66.7415757 L155.479557,66.7415757 L155.479557,56.7182046 L155.479557,56.7182046 Z M168.702479,64.6462946 C168.947873,65.0143864 169.26169,65.2857321 169.643939,65.4603396 C170.026188,65.6349474 170.420229,65.7222499 170.826074,65.7222499 C171.052592,65.7222499 171.283826,65.686857 171.519782,65.61607 C171.755738,65.5452831 171.970455,65.4391045 172.163939,65.2975307 C172.357423,65.1559571 172.515512,64.981352 172.638209,64.7737105 C172.760906,64.566069 172.822254,64.3253971 172.822254,64.051688 C172.822254,63.6647197 172.699559,63.3697787 172.454164,63.1668564 C172.20877,62.9639341 171.904391,62.7940481 171.541018,62.6571936 C171.177645,62.5203388 170.781245,62.3882053 170.351804,62.2607889 C169.922364,62.1333727 169.525964,61.9564082 169.162591,61.7298901 C168.799218,61.5033721 168.494839,61.198993 168.249445,60.8167441 C168.00405,60.434495 167.881355,59.9177583 167.881355,59.2665192 C167.881355,58.9739335 167.945062,58.6624757 168.072479,58.3321372 C168.199895,58.0017985 168.400455,57.699779 168.674164,57.4260697 C168.947873,57.1523605 169.299443,56.9234865 169.728883,56.7394404 C170.158324,56.5553946 170.67506,56.463373 171.279108,56.463373 C171.826526,56.463373 172.350341,56.5388779 172.850569,56.6898899 C173.350796,56.8409018 173.789668,57.1476405 174.167198,57.6101147 L173.062928,58.6152831 C172.89304,58.3510124 172.652368,58.1386547 172.340906,57.9782046 C172.029443,57.8177544 171.675514,57.7375304 171.279108,57.7375304 C170.901578,57.7375304 170.587761,57.7870806 170.337647,57.8861821 C170.087533,57.9852837 169.886974,58.1126981 169.735962,58.2684293 C169.58495,58.4241604 169.478771,58.5916868 169.417422,58.7710136 C169.356074,58.9503404 169.3254,59.1155073 169.3254,59.2665192 C169.3254,59.6912406 169.448096,60.0168552 169.69349,60.2433731 C169.938884,60.4698913 170.243263,60.6539344 170.606636,60.795508 C170.970009,60.9370818 171.366409,61.0644963 171.795849,61.1777552 C172.22529,61.2910142 172.62169,61.4491026 172.985063,61.6520249 C173.348436,61.8549472 173.652815,62.1286523 173.898209,62.4731486 C174.143604,62.8176447 174.266299,63.2919096 174.266299,63.8959576 C174.266299,64.3773084 174.174278,64.8114614 173.990232,65.1984295 C173.806186,65.5853979 173.558435,65.9110127 173.246973,66.1752834 C172.935511,66.4395544 172.567425,66.6424738 172.142704,66.7840476 C171.717982,66.9256214 171.264953,66.9964071 170.783602,66.9964071 C170.141801,66.9964071 169.533043,66.8831499 168.95731,66.6566319 C168.381577,66.4301138 167.923828,66.0809039 167.584052,65.6089914 L168.702479,64.6462946 L168.702479,64.6462946 Z" id="FOR-TEAMS"></path>
        </g>
    </g>
</svg>