<?xml version="1.0" encoding="UTF-8"?>
<svg width="540px" height="338px" viewBox="0 0 540 338" version="1.1" xmlns="http://www.w3.org/2000/svg" xmlns:xlink="http://www.w3.org/1999/xlink">
    <title>case-study-thumb__gear-trade</title>
    <g id="case-study-thumb__gear-trade" stroke="none" stroke-width="1" fill="none" fill-rule="evenodd">
        <rect fill="#000000" x="0" y="0" width="540" height="338"></rect>
        <g id="gear-trade" transform="translate(133.000000, 134.000000)" fill="#FFFFFF" fill-rule="nonzero">
            <path d="M21.4206744,24.1421953 C22.5540711,23.2652772 24.0752887,23.2649985 25.2064586,24.1424726 L32.5110363,29.799958 L29.8160524,31.8870128 L23.3135658,26.8509786 L0,44.9097259 L27.7817285,66.4286623 C27.9983293,66.5961049 28.2154874,66.7641021 28.4348723,66.9293222 C28.4874918,66.9687527 28.5398326,67.0081845 28.5927294,67.0467817 C30.909358,68.7622994 33.5809571,69.6700406 36.3185375,69.6725391 C39.0561192,69.6700406 41.7274396,68.7622994 44.0446243,67.047059 L44.2019254,66.9293222 C44.4215889,66.7641021 44.6384684,66.5961049 44.8556252,66.4286623 L72.6367977,44.9097259 L68.8267911,41.9585253 C67.6463432,42.8732087 42.1397603,62.6335879 42.1085791,62.6577462 C41.0779146,63.4558033 39.8531996,64.3407742 38.3584296,64.7339711 C37.6994388,64.9077999 37.0131643,64.9958256 36.3185375,64.9961029 C35.6239106,64.9958256 34.9376361,64.9077999 34.2783681,64.7339711 C32.7833194,64.3402196 31.5591617,63.4558033 30.5284973,62.6577462 L7.61695173,44.907782 L23.3135658,32.7489374 L26.0085512,34.8359922 L19.5032806,39.8706372 L23.3135658,42.8218378 L47.4300603,24.1421953 C48.5626223,23.2652772 50.083284,23.2658318 51.2158459,24.1421953 L55.8257169,27.7131805 L59.6323834,24.7630919 L54.0803808,20.4629139 C51.2796005,18.293665 47.3663044,18.293665 44.5655254,20.4629139 L36.3118559,26.846259 L28.0712722,20.4629139 C25.2710493,18.293109 21.3583105,18.2933877 18.5561395,20.4629139 L4.21536837,31.5715662 C3.20558475,32.3535179 2.62705325,33.5431068 2.62705325,34.8359922 C2.62705325,35.9514384 3.05663601,36.9883024 3.83812641,37.7627558 L21.4206744,24.1421953 Z M51.2161232,45.5303438 C50.0830053,46.4072619 48.5615075,46.4075406 47.430339,45.5300665 L40.1260386,39.8725811 L42.821024,37.7855262 L49.3232318,42.8215605 L72.6367977,24.7628132 L44.8550692,3.24387678 C44.6384684,3.07643416 44.4215889,2.90843695 44.2019254,2.74321688 C44.1493059,2.7037864 44.0972438,2.66435453 44.0440683,2.62575734 C41.7274396,0.910239674 39.0561192,0.00249845725 36.3185375,0 C33.5809571,0.00249845725 30.909358,0.910239674 28.5924507,2.62548004 L28.4348723,2.74321688 C28.2154874,2.90843695 27.9983293,3.07643416 27.7814498,3.24387678 L0,24.7628132 L3.81000657,27.7140137 C4.99073315,26.7993303 30.497316,7.03895113 30.5282186,7.01479287 C31.5591617,6.21673574 32.7835981,5.3317649 34.2783681,4.93856793 C34.9376361,4.76473913 35.6239106,4.67671345 36.3185375,4.67643615 C37.0131643,4.67671345 37.6994388,4.76473913 38.3584296,4.93856793 C39.8534783,5.3323195 41.0779146,6.21673574 42.1083004,7.01479287 L65.0198459,24.764757 L49.3232318,36.9236017 L46.6282464,34.8365468 L53.1337944,29.8019019 L49.3232318,26.8507013 L25.207016,45.5303438 C24.0744541,46.4072619 22.5537924,46.4067073 21.4212304,45.5303438 L16.8113594,41.9593586 L13.0044143,44.9094472 L18.5564168,49.2096252 C21.3571972,51.3788741 25.2707706,51.3788741 28.0715509,49.2096252 L36.3252191,42.8262801 L44.5658041,49.2096252 C47.3660257,51.3794301 51.2787658,51.3791514 54.0806581,49.2096252 L68.421708,38.1009728 C69.4312129,37.3190212 70.0100231,36.1294323 70.0100231,34.8365468 C70.0100231,33.7211006 69.5804403,32.6842367 68.7989499,31.9097832 L51.2161232,45.5303438 Z M274.509804,28.7644833 L274.509804,23.2877689 L256.978483,23.2877689 L256.978483,26.5835712 L259.063756,26.5835712 L259.063756,43.0467602 L256.978483,43.0467602 L256.978483,46.3428399 L274.509804,46.3428399 L274.509804,40.867236 L271.205107,40.867236 L271.205107,43.0467602 L263.209243,43.0467602 L263.209243,36.077784 L272.828222,36.077784 L272.828222,32.7819803 L263.209243,32.7819803 L263.209243,26.5835712 L271.205107,26.5835712 L271.205107,28.7644833 L274.509804,28.7644833 Z M245.892296,26.5835712 L241.574196,26.5835712 L241.574196,43.0467602 L245.892296,43.0467602 C249.80949,43.0467602 251.557889,40.4568229 251.557889,34.6480018 C251.557889,28.9952374 249.862387,26.5835712 245.892296,26.5835712 Z M255.90383,34.6480018 C255.90383,42.5172211 252.629758,46.3428399 245.892296,46.3428399 L235.346219,46.3428399 L235.346219,43.0467602 L237.431492,43.0467602 L237.431492,26.5835712 L235.346219,26.5835712 L235.346219,23.2877689 L245.892296,23.2877689 C252.629758,23.2877689 255.90383,27.0037036 255.90383,34.6480018 Z M219.354214,36.3040944 L225.275664,36.3040944 L222.395259,27.2383454 L219.354214,36.3040944 Z M231.718569,43.0467602 L233.567196,43.0467602 L233.567196,46.3428399 L224.88283,46.3428399 L224.88283,43.0467602 L227.194448,43.0467602 L226.058545,39.3988566 L218.464702,39.3988566 L217.203238,43.0467602 L219.441355,43.0467602 L219.441355,46.3428399 L210.958,46.3428399 L210.958,43.0467602 L213.11204,43.0467602 L218.779859,26.5835712 L216.474088,26.5835712 L216.474088,23.2877689 L225.193255,23.2877689 L231.718569,43.0467602 Z M194.992722,34.1242942 L199.983176,34.1242942 C202.329038,34.1242942 203.729706,32.7147825 203.729706,30.3539327 C203.729706,28.0280711 202.345464,26.5835712 200.117647,26.5835712 L194.992722,26.5835712 L194.992722,34.1242942 Z M208.050312,43.0467602 L209.690689,43.0467602 L209.690689,46.3428399 L201.106273,46.3428399 L201.106273,43.0467602 L202.812632,43.0467602 L198.910473,37.4187087 L194.992722,37.4187087 L194.992722,43.0467602 L197.044028,43.0467602 L197.044028,46.3428399 L188.762518,46.3428399 L188.762518,43.0467602 L190.847791,43.0467602 L190.847791,26.5835712 L188.762518,26.5835712 L188.762518,23.2877689 L200.554747,23.2877689 C205.132045,23.2877689 207.975421,25.9954416 207.975421,30.3539327 C207.975421,33.5833706 206.246788,36.0111408 203.450742,36.7353339 L208.050312,43.0467602 Z M169.146761,28.7644833 L172.484031,28.7644833 L172.484031,26.5835712 L175.873365,26.5835712 L175.873365,43.0467602 L173.822058,43.0467602 L173.822058,46.3428399 L182.069601,46.3428399 L182.069601,43.0467602 L180.018296,43.0467602 L180.018296,26.5835712 L183.40735,26.5835712 L183.40735,28.7644833 L186.71149,28.7644833 L186.71149,23.2877689 L169.146761,23.2877689 L169.146761,28.7644833 Z M153.942927,34.1242942 L158.933659,34.1242942 C161.279799,34.1242942 162.68019,32.7147825 162.68019,30.3539327 C162.68019,28.0280711 161.296225,26.5835712 159.068408,26.5835712 L153.942927,26.5835712 L153.942927,34.1242942 Z M167.001074,43.0467602 L168.641173,43.0467602 L168.641173,46.3428399 L160.056755,46.3428399 L160.056755,43.0467602 L161.763115,43.0467602 L157.861234,37.4187087 L153.942927,37.4187087 L153.942927,43.0467602 L155.99479,43.0467602 L155.99479,46.3428399 L147.713002,46.3428399 L147.713002,43.0467602 L149.798552,43.0467602 L149.798552,26.5835712 L147.713002,26.5835712 L147.713002,23.2877689 L159.505509,23.2877689 C164.082528,23.2877689 166.925904,25.9954416 166.925904,30.3539327 C166.925904,33.5833706 165.197272,36.0111408 162.400946,36.7353339 L167.001074,43.0467602 Z M131.700394,36.3040944 L137.621844,36.3040944 L134.741439,27.2383454 L131.700394,36.3040944 Z M144.064472,43.0467602 L145.914211,43.0467602 L145.914211,46.3428399 L137.22901,46.3428399 L137.22901,43.0467602 L139.540071,43.0467602 L138.404725,39.3988566 L130.810882,39.3988566 L129.549696,43.0467602 L131.787813,43.0467602 L131.787813,46.3428399 L123.304459,46.3428399 L123.304459,43.0467602 L125.458498,43.0467602 L131.126039,26.5835712 L128.820546,26.5835712 L128.820546,23.2877689 L137.539435,23.2877689 L144.064472,43.0467602 Z M104.047568,26.5835712 L106.132841,26.5835712 L106.132841,43.0467602 L104.047568,43.0467602 L104.047568,46.3428399 L121.578333,46.3428399 L121.578333,40.867236 L118.275027,40.867236 L118.275027,43.0467602 L110.277771,43.0467602 L110.277771,36.077784 L119.897028,36.077784 L119.897028,32.7819803 L110.277771,32.7819803 L110.277771,26.5835712 L118.275027,26.5835712 L118.275027,28.7644833 L121.578333,28.7644833 L121.578333,23.2877689 L104.047568,23.2877689 L104.047568,26.5835712 Z M100.80245,24.0736082 L100.889592,24.0988771 L100.889592,29.4270316 L97.5353385,29.4270316 L97.5353385,26.7101941 C95.6477352,26.314776 94.0262894,26.1498332 92.4321288,26.1864865 C88.3016745,26.2864527 86.2937997,29.0804845 86.2937997,34.7288066 C86.2937997,38.6294 87.3581509,43.2794568 92.4293447,43.2794568 C93.892932,43.2794568 95.5508486,42.9501258 96.6809051,42.4366935 L96.6809051,37.9535234 L92.6459455,37.9535234 L92.6459455,34.607182 L100.889592,34.607182 L100.889592,45.0868864 L100.811638,45.1168763 C97.7842339,46.2698105 94.9416932,46.8307274 92.1214255,46.8307274 C92.1214255,46.8307274 92.1211468,46.8307274 92.1208681,46.8307274 C88.4556341,46.8307274 85.7364278,45.6286434 84.0386989,43.257797 C82.6057354,41.2571012 81.8790913,38.3872615 81.8790913,34.7288066 C81.8790913,26.6191154 85.1336753,22.8418117 92.1214255,22.8418117 C95.0764427,22.8418117 97.9972159,23.2563912 100.80245,24.0736082 L100.80245,24.0736082 Z" id="Fill-1"></path>
        </g>
    </g>
</svg>