<svg width="15" height="16" viewBox="0 0 15 16" fill="none" xmlns="http://www.w3.org/2000/svg">
<path d="M4.16667 0C1.86917 0 0 1.99378 0 4.44444V11.5556C0 14.0062 1.86917 16 4.16667 16H10.8333C13.1308 16 15 14.0062 15 11.5556V4.44444C15 1.99378 13.1308 0 10.8333 0H4.16667ZM4.16667 1.77778H10.8333C12.2117 1.77778 13.3333 2.97422 13.3333 4.44444V11.5556C13.3333 13.0258 12.2117 14.2222 10.8333 14.2222H4.16667C2.78833 14.2222 1.66667 13.0258 1.66667 11.5556V4.44444C1.66667 2.97422 2.78833 1.77778 4.16667 1.77778ZM11.6667 2.66667C11.4457 2.66667 11.2337 2.76032 11.0774 2.92702C10.9211 3.09372 10.8333 3.31981 10.8333 3.55556C10.8333 3.7913 10.9211 4.0174 11.0774 4.18409C11.2337 4.35079 11.4457 4.44444 11.6667 4.44444C11.8877 4.44444 12.0996 4.35079 12.2559 4.18409C12.4122 4.0174 12.5 3.7913 12.5 3.55556C12.5 3.31981 12.4122 3.09372 12.2559 2.92702C12.0996 2.76032 11.8877 2.66667 11.6667 2.66667ZM7.5 3.55556C5.2025 3.55556 3.33333 5.54933 3.33333 8C3.33333 10.4507 5.2025 12.4444 7.5 12.4444C9.7975 12.4444 11.6667 10.4507 11.6667 8C11.6667 5.54933 9.7975 3.55556 7.5 3.55556ZM7.5 5.33333C8.87833 5.33333 10 6.52978 10 8C10 9.47022 8.87833 10.6667 7.5 10.6667C6.12167 10.6667 5 9.47022 5 8C5 6.52978 6.12167 5.33333 7.5 5.33333Z" fill="white"/>
</svg>
