<svg width="15" height="16" viewBox="0 0 15 16" fill="none" xmlns="http://www.w3.org/2000/svg">
<path d="M1.66667 0C0.745833 0 0 0.795556 0 1.77778V14.2222C0 15.2044 0.745833 16 1.66667 16H13.3333C14.2542 16 15 15.2044 15 14.2222V1.77778C15 0.795556 14.2542 0 13.3333 0H1.66667ZM1.66667 1.77778H13.3333V14.2222H1.66667V1.77778ZM3.98275 2.94792C3.26858 2.94792 2.84017 3.40585 2.84017 4.01562C2.84017 4.6254 3.26863 5.0816 3.91113 5.0816C4.6253 5.0816 5.05371 4.6254 5.05371 4.01562C5.05371 3.40585 4.62525 2.94792 3.98275 2.94792ZM2.89714 6.22222V12.4444H5V6.22222H2.89714ZM6.73503 6.22222V12.4444H8.83789V9.0434C8.83789 8.03096 9.51509 7.88542 9.71842 7.88542C9.92176 7.88542 10.4655 8.10296 10.4655 9.0434V12.4444H12.5V9.0434C12.5 7.09051 11.6864 6.22222 10.6689 6.22222C9.65145 6.22222 9.10872 6.58361 8.83789 7.09028V6.22222H6.73503Z" fill="white"/>
</svg>
